<svg width="208" height="64" viewBox="0 0 208 64" fill="none" xmlns="http://www.w3.org/2000/svg">
<rect width="208" height="64" rx="8" fill="black"/>
<path d="M52.1075 31.2368C52.0633 26.3233 56.1306 23.9329 56.3166 23.8216C54.0131 20.4632 50.4427 20.0043 49.1881 19.9677C46.1894 19.6521 43.2807 21.762 41.7531 21.762C40.1951 21.762 37.8428 19.9982 35.3076 20.05C32.0452 20.1003 28.9932 21.9892 27.3193 24.9223C23.8648 30.9029 26.4412 39.6916 29.7508 44.5257C31.4064 46.8933 33.341 49.5367 35.8732 49.4437C38.3505 49.3416 39.2758 47.8644 42.2654 47.8644C45.2275 47.8644 46.0964 49.4437 48.6789 49.3843C51.3376 49.3416 53.0115 47.0061 54.6092 44.6172C56.5224 41.9036 57.2907 39.2312 57.3212 39.094C57.2587 39.0726 52.1578 37.1259 52.1075 31.2368Z" fill="white"/>
<path d="M47.2291 16.7876C48.5615 15.1213 49.4732 12.8544 49.2201 10.554C47.2916 10.6393 44.8799 11.8879 43.4911 13.5176C42.2623 14.9536 41.1647 17.3074 41.4483 19.521C43.6146 19.6826 45.8388 18.4279 47.2291 16.7876Z" fill="white"/>
<path d="M79.7505 25.6992C82.2573 25.6992 84.1748 24.2134 84.6313 21.9224L84.6479 21.8394H83.1372L83.1123 21.9141C82.5894 23.4912 81.4272 24.3213 79.7505 24.3213C77.3682 24.3213 75.8159 22.4204 75.8159 19.5068V19.4985C75.8159 16.585 77.3599 14.7007 79.7505 14.7007C81.4355 14.7007 82.6143 15.5474 83.0791 17L83.1372 17.1826H84.6479L84.6313 17.0996C84.1748 14.8335 82.2407 13.3228 79.7505 13.3228C76.4136 13.3228 74.2803 15.73 74.2803 19.4985V19.5068C74.2803 23.2754 76.4219 25.6992 79.7505 25.6992ZM87.718 21.5156L91.1628 25.5H92.989L89.0212 20.9512L92.8728 16.8672H91.1213L87.718 20.5195H87.3859V16.8672H85.9416V25.5H87.3859V21.5156H87.718ZM96.0673 25.666C97.2211 25.666 98.2587 25.0435 98.7651 24.0972H98.7983V25.5H100.243V19.5317C100.243 17.8052 98.9643 16.7012 96.9223 16.7012C94.8886 16.7012 93.6518 17.8467 93.5273 19.2661L93.519 19.3574H94.9135L94.9301 19.2827C95.0961 18.5107 95.7934 17.9795 96.9057 17.9795C98.1093 17.9795 98.7983 18.6187 98.7983 19.6729V20.395L96.3246 20.5361C94.3407 20.6523 93.1952 21.5737 93.1952 23.043V23.0596C93.1952 24.6284 94.349 25.666 96.0673 25.666ZM94.6728 23.0596V23.043C94.6728 22.2378 95.3368 21.7231 96.4906 21.6567L98.7983 21.5156V22.2212C98.7983 23.4746 97.7524 24.4126 96.391 24.4126C95.3534 24.4126 94.6728 23.8896 94.6728 23.0596ZM108.409 25.5V16.8672H106.965V20.5029C106.567 20.9014 105.795 21.167 105.031 21.167C103.711 21.167 103.055 20.561 103.055 19.3325V16.8672H101.611V19.4321C101.611 21.2666 102.682 22.4453 104.757 22.4453C105.579 22.4453 106.392 22.2046 106.932 21.7231H106.965V25.5H108.409ZM112.567 25.666C113.721 25.666 114.758 25.0435 115.264 24.0972H115.298V25.5H116.742V19.5317C116.742 17.8052 115.464 16.7012 113.422 16.7012C111.388 16.7012 110.151 17.8467 110.027 19.2661L110.018 19.3574H111.413L111.43 19.2827C111.596 18.5107 112.293 17.9795 113.405 17.9795C114.609 17.9795 115.298 18.6187 115.298 19.6729V20.395L112.824 20.5361C110.84 20.6523 109.695 21.5737 109.695 23.043V23.0596C109.695 24.6284 110.848 25.666 112.567 25.666ZM111.172 23.0596V23.043C111.172 22.2378 111.836 21.7231 112.99 21.6567L115.298 21.5156V22.2212C115.298 23.4746 114.252 24.4126 112.89 24.4126C111.853 24.4126 111.172 23.8896 111.172 23.0596ZM122.045 15.8877C123.647 15.8877 124.585 14.8501 124.585 13.5386V13.5137H123.398V13.5552C123.398 14.2939 122.917 14.9248 122.053 14.9248C121.157 14.9248 120.709 14.2939 120.709 13.5552V13.5137H119.522V13.5386C119.522 14.8501 120.46 15.8877 122.045 15.8877ZM118.326 25.5H119.754L124.054 19.0835H124.12V25.5H125.564V16.8672H124.137L119.837 23.2837H119.771V16.8672H118.326V25.5ZM133.499 16.8672H126.493V18.0625H129.274V25.5H130.718V18.0625H133.499V16.8672ZM137.822 25.666C139.707 25.666 141.118 24.5371 141.4 23.1094L141.416 23.0264H139.997L139.972 23.1011C139.723 23.8398 138.951 24.3877 137.855 24.3877C136.32 24.3877 135.34 23.3501 135.307 21.5737H141.524V21.0425C141.524 18.4526 140.088 16.7012 137.731 16.7012C135.373 16.7012 133.846 18.5356 133.846 21.2085V21.2168C133.846 23.9312 135.34 25.666 137.822 25.666ZM137.723 17.9795C138.984 17.9795 139.914 18.7681 140.055 20.4448H135.332C135.49 18.8345 136.469 17.9795 137.723 17.9795ZM145.813 25.5H149.532C151.367 25.5 152.495 24.5454 152.495 23.0264V23.0098C152.495 21.9556 151.782 21.1919 150.694 21.0425V20.9761C151.491 20.8101 152.114 19.9966 152.114 19.1084V19.0918C152.114 17.7222 151.126 16.8672 149.507 16.8672H145.813V25.5ZM147.258 20.478V18.0625H149.291C150.196 18.0625 150.678 18.4692 150.678 19.2412V19.2578C150.678 20.0879 150.163 20.478 149.076 20.478H147.258ZM147.258 24.3047V21.6733H149.15C150.412 21.6733 151.018 22.0884 151.018 22.9766V22.9932C151.018 23.8564 150.453 24.3047 149.408 24.3047H147.258Z" fill="white"/>
<path d="M73.8164 49.5H76.9805L78.4102 45.1289H84.7031L86.1328 49.5H89.3086L83.2617 32.5898H79.8633L73.8164 49.5ZM81.5273 35.6016H81.5977L83.9414 42.7969H79.1719L81.5273 35.6016ZM91.1803 53.6016H94.0983V47.4023H94.1569C94.86 48.8555 96.278 49.7461 98.0475 49.7461C101.165 49.7461 103.157 47.2852 103.157 43.3008V43.2891C103.157 39.2812 101.165 36.8203 98.0123 36.8203C96.2311 36.8203 94.8717 37.7344 94.1569 39.2227H94.0983V37.0781H91.1803V53.6016ZM97.1452 47.2852C95.3405 47.2852 94.0748 45.7266 94.0748 43.3008V43.2891C94.0748 40.8516 95.3405 39.2812 97.1452 39.2812C99.0084 39.2812 100.18 40.8047 100.18 43.2891V43.3008C100.18 45.75 99.0084 47.2852 97.1452 47.2852ZM105.392 53.6016H108.31V47.4023H108.368C109.072 48.8555 110.49 49.7461 112.259 49.7461C115.376 49.7461 117.368 47.2852 117.368 43.3008V43.2891C117.368 39.2812 115.376 36.8203 112.224 36.8203C110.443 36.8203 109.083 37.7344 108.368 39.2227H108.31V37.0781H105.392V53.6016ZM111.357 47.2852C109.552 47.2852 108.286 45.7266 108.286 43.3008V43.2891C108.286 40.8516 109.552 39.2812 111.357 39.2812C113.22 39.2812 114.392 40.8047 114.392 43.2891V43.3008C114.392 45.75 113.22 47.2852 111.357 47.2852ZM131.002 49.793C135.127 49.793 137.612 47.7891 137.612 44.6367V44.625C137.612 41.9883 136.077 40.5586 132.561 39.832L130.733 39.457C128.694 39.0352 127.768 38.332 127.768 37.1367V37.125C127.768 35.7773 128.999 34.8516 130.979 34.8398C132.877 34.8398 134.178 35.7188 134.377 37.1953L134.401 37.3359H137.295L137.284 37.1367C137.108 34.2422 134.694 32.2969 131.002 32.2969C127.358 32.2969 124.745 34.3125 124.733 37.2891V37.3008C124.733 39.8203 126.374 41.3672 129.702 42.0586L131.518 42.4336C133.698 42.8906 134.577 43.5703 134.577 44.8359V44.8477C134.577 46.3008 133.241 47.25 131.108 47.25C128.987 47.25 127.499 46.3477 127.276 44.8945L127.252 44.7539H124.358L124.37 44.9297C124.569 47.9648 127.124 49.793 131.002 49.793ZM144.558 49.7461C145.144 49.7461 145.659 49.6875 145.999 49.6406V47.4492C145.8 47.4609 145.577 47.4961 145.296 47.4961C144.23 47.4961 143.691 47.1094 143.691 45.8906V39.3281H145.999V37.0781H143.691V33.9258H140.726V37.0781H138.968V39.3281H140.726V46.1367C140.726 48.6914 141.956 49.7461 144.558 49.7461ZM153.625 49.7461C157.269 49.7461 159.637 47.3203 159.637 43.2891V43.2656C159.637 39.2578 157.234 36.8203 153.613 36.8203C150.004 36.8203 147.613 39.2812 147.613 43.2656V43.2891C147.613 47.3086 149.969 49.7461 153.625 49.7461ZM153.637 47.3906C151.773 47.3906 150.59 45.9023 150.59 43.2891V43.2656C150.59 40.6875 151.797 39.1875 153.613 39.1875C155.465 39.1875 156.66 40.6758 156.66 43.2656V43.2891C156.66 45.8906 155.476 47.3906 153.637 47.3906ZM161.872 49.5H164.79V42.293C164.79 40.4531 165.786 39.4102 167.438 39.4102C167.93 39.4102 168.375 39.4805 168.622 39.5742V36.9375C168.399 36.8789 168.059 36.8203 167.696 36.8203C166.266 36.8203 165.235 37.7227 164.848 39.2227H164.79V37.0781H161.872V49.5ZM175.474 49.7461C178.72 49.7461 180.548 47.8242 180.935 45.9141L180.97 45.7852H178.239L178.216 45.8672C177.935 46.6992 176.985 47.4727 175.532 47.4727C173.634 47.4727 172.439 46.1836 172.392 44.0039H181.087V43.0664C181.087 39.3164 178.884 36.8203 175.333 36.8203C171.782 36.8203 169.497 39.3984 169.497 43.3125V43.3242C169.497 47.2734 171.747 49.7461 175.474 49.7461ZM175.368 39.1055C176.915 39.1055 178.04 40.0898 178.251 42.0586H172.427C172.661 40.1484 173.821 39.1055 175.368 39.1055Z" fill="white"/>
</svg>
