<svg width="136" height="135" viewBox="0 0 136 135" fill="none" xmlns="http://www.w3.org/2000/svg">
<path d="M96.0555 123.444H39.9444C37.6439 123.444 35.7361 121.537 35.7361 119.236C35.7361 116.936 37.6439 115.028 39.9444 115.028H96.0555C98.3561 115.028 100.264 116.936 100.264 119.236C100.264 121.537 98.3561 123.444 96.0555 123.444Z" fill="white"/>
<path d="M114.853 30.9734L92.4083 47.0211C89.4344 49.1534 85.17 47.8628 83.8794 44.44L73.2744 16.16C71.4789 11.2784 64.5772 11.2784 62.7817 16.16L52.1206 44.3839C50.83 47.8628 46.6217 49.1534 43.6478 46.965L21.2033 30.9173C16.7144 27.775 10.7667 32.2078 12.6183 37.4261L35.9606 102.796C36.7461 105.04 38.8783 106.499 41.235 106.499H94.7089C97.0656 106.499 99.1978 104.984 99.9833 102.796L123.326 37.4261C125.233 32.2078 119.286 27.775 114.853 30.9734ZM82.0278 82.7639H53.9722C51.6717 82.7639 49.7639 80.8561 49.7639 78.5556C49.7639 76.255 51.6717 74.3473 53.9722 74.3473H82.0278C84.3283 74.3473 86.2361 76.255 86.2361 78.5556C86.2361 80.8561 84.3283 82.7639 82.0278 82.7639Z" fill="white"/>
</svg>
