<svg width="162" height="162" viewBox="0 0 162 162" fill="none" xmlns="http://www.w3.org/2000/svg">
<path fill-rule="evenodd" clip-rule="evenodd" d="M131.625 32.9064V54.603C131.625 61.5926 108.959 67.2592 80.9996 67.2592C53.0401 67.2592 30.3746 61.5926 30.3746 54.603V32.9064C30.3746 25.9166 53.0401 20.2502 80.9996 20.2502C108.959 20.2502 131.625 25.9166 131.625 32.9064ZM32.471 66.5363C38.6943 71.7642 58.0662 75.5766 80.9996 75.5766C103.933 75.5766 123.305 71.7642 129.528 66.5363C130.892 67.6818 131.625 68.8954 131.625 70.1519V91.8484C131.625 98.8381 108.959 104.505 80.9996 104.505C53.0401 104.505 30.3746 98.8381 30.3746 91.8484V70.1523C30.3747 68.8957 31.1071 67.6818 32.471 66.5363ZM80.9996 113.665C58.0665 113.665 38.6947 109.853 32.4711 104.625C31.1071 105.771 30.3746 106.985 30.3746 108.241V129.938C30.3746 136.928 53.0401 142.594 80.9996 142.594C108.959 142.594 131.625 136.928 131.625 129.938V108.241C131.625 106.985 130.892 105.771 129.528 104.625C123.305 109.853 103.933 113.665 80.9996 113.665ZM109.125 126C109.125 128.175 107.362 129.938 105.187 129.938C103.012 129.938 101.25 128.175 101.25 126C101.25 123.826 103.012 122.063 105.187 122.063C107.362 122.063 109.125 123.826 109.125 126ZM120.937 126C123.112 126 124.875 124.237 124.875 122.063C124.875 119.888 123.112 118.125 120.937 118.125C118.763 118.125 117 119.888 117 122.063C117 124.237 118.763 126 120.937 126Z" fill="white"/>
</svg>
