<svg width="98" height="98" viewBox="0 0 98 98" fill="none" xmlns="http://www.w3.org/2000/svg">
<path d="M69.2515 0.666687H28.7482C11.1548 0.666687 0.666504 11.155 0.666504 28.7484V69.2034C0.666504 86.845 11.1548 97.3333 28.7482 97.3333H69.2032C86.7965 97.3333 97.2848 86.845 97.2848 69.2517V28.7484C97.3332 11.155 86.8448 0.666687 69.2515 0.666687ZM16.3748 48.4684C16.5198 39.9617 19.9032 31.9384 25.8965 25.945C32.0832 19.7584 40.2998 16.375 48.9998 16.375C57.6998 16.375 65.9165 19.7584 72.0548 25.945C72.1998 26.09 72.3448 26.2834 72.4898 26.4767V22.32C72.4898 20.3384 74.1332 18.695 76.1148 18.695C78.0965 18.695 79.7398 20.3384 79.7398 22.32V35.1284C79.7398 37.11 78.0965 38.7534 76.1148 38.7534H63.3065C61.3248 38.7534 59.6815 37.11 59.6815 35.1284C59.6815 33.1467 61.3248 31.5034 63.3065 31.5034H67.3182C67.1732 31.3584 67.0765 31.2134 66.9315 31.0684C62.1465 26.2834 55.7665 23.625 48.9998 23.625C42.2332 23.625 35.8532 26.2834 31.0682 31.0684C26.3798 35.7567 23.7698 41.9917 23.6732 48.6134C23.6248 50.5467 21.9815 52.1417 19.9998 52.1417H19.9515C17.9698 52.1417 16.3748 50.45 16.3748 48.4684ZM72.0548 72.055C65.9165 78.1934 57.6998 81.625 48.9998 81.625C40.2998 81.625 32.0832 78.2417 25.9448 72.055C25.7998 71.91 25.6548 71.7167 25.5098 71.5233V75.6317C25.5098 77.6133 23.8665 79.2567 21.8848 79.2567C19.9032 79.2567 18.2598 77.6133 18.2598 75.6317V62.8233C18.2598 60.8417 19.9032 59.1983 21.8848 59.1983H34.6932C36.6748 59.1983 38.3182 60.8417 38.3182 62.8233C38.3182 64.805 36.6748 66.4483 34.6932 66.4483H30.6815C30.8265 66.5933 30.9232 66.7383 31.0682 66.8833C35.8532 71.6683 42.2332 74.3267 48.9998 74.3267C55.7665 74.3267 62.1465 71.6683 66.9315 66.8833C71.6682 62.1467 74.3265 55.815 74.3265 49.0484C74.3265 47.0667 75.9698 45.4234 77.9515 45.4234C79.9332 45.4234 81.5765 47.0667 81.5765 49.0484C81.5765 57.7967 78.1932 65.965 72.0548 72.055Z" fill="#007AFF"/>
</svg>
