<svg width="698" height="813" viewBox="0 0 698 813" fill="none" xmlns="http://www.w3.org/2000/svg">
<path fill-rule="evenodd" clip-rule="evenodd" d="M-116.36 47.4264C-114.408 49.379 -114.408 52.5449 -116.36 54.4975L-130.503 68.6396C-132.455 70.5922 -135.621 70.5922 -137.574 68.6396L-149.948 56.2652L-162.322 68.6396C-164.275 70.5922 -167.441 70.5922 -169.393 68.6396L-183.536 54.4975C-185.488 52.5448 -185.488 49.379 -183.536 47.4264L-171.161 35.052L-183.536 22.6777C-185.488 20.725 -185.488 17.5592 -183.536 15.6066L-169.393 1.46447C-167.441 -0.488154 -164.275 -0.488155 -162.322 1.46447L-149.948 13.8388L-137.574 1.46447C-135.621 -0.488154 -132.455 -0.488156 -130.503 1.46447L-116.36 15.6066C-114.408 17.5592 -114.408 20.725 -116.36 22.6777L-128.735 35.052L-116.36 47.4264ZM-0.294373 47.4264C1.65823 49.379 1.65825 52.5449 -0.294373 54.4975L-14.4365 68.6396C-16.3891 70.5922 -19.555 70.5922 -21.5076 68.6396L-33.882 56.2652L-46.2563 68.6396C-48.2089 70.5922 -51.3748 70.5922 -53.3274 68.6396L-67.4695 54.4975C-69.4221 52.5448 -69.4221 49.379 -67.4695 47.4264L-55.0952 35.052L-67.4695 22.6777C-69.4221 20.725 -69.4221 17.5592 -67.4695 15.6066L-53.3274 1.46447C-51.3748 -0.488154 -48.2089 -0.488155 -46.2563 1.46447L-33.8819 13.8388L-21.5076 1.46447C-19.555 -0.488154 -16.3891 -0.488156 -14.4365 1.46447L-0.294373 15.6066C1.65825 17.5592 1.65825 20.725 -0.294373 22.6777L-12.6687 35.052L-0.294373 47.4264ZM115.772 54.4975C117.724 52.5449 117.724 49.379 115.772 47.4264L103.397 35.052L115.772 22.6777C117.724 20.725 117.724 17.5592 115.772 15.6066L101.63 1.46447C99.6769 -0.488156 96.511 -0.488154 94.5584 1.46447L82.1841 13.8388L69.8097 1.46447C67.8571 -0.488155 64.6913 -0.488154 62.7386 1.46447L48.5965 15.6066C46.6439 17.5592 46.6439 20.725 48.5965 22.6777L60.9709 35.052L48.5965 47.4264C46.6439 49.379 46.6439 52.5448 48.5965 54.4975L62.7386 68.6396C64.6913 70.5922 67.8571 70.5922 69.8097 68.6396L82.1841 56.2652L94.5584 68.6396C96.511 70.5922 99.6769 70.5922 101.63 68.6396L115.772 54.4975ZM231.838 47.4264C233.79 49.379 233.79 52.5449 231.838 54.4975L217.696 68.6396C215.743 70.5922 212.577 70.5922 210.624 68.6396L198.25 56.2652L185.876 68.6396C183.923 70.5922 180.757 70.5922 178.805 68.6396L164.663 54.4975C162.71 52.5448 162.71 49.379 164.663 47.4264L177.037 35.052L164.663 22.6777C162.71 20.725 162.71 17.5592 164.663 15.6066L178.805 1.46447C180.757 -0.488154 183.923 -0.488155 185.876 1.46447L198.25 13.8388L210.624 1.46447C212.577 -0.488154 215.743 -0.488156 217.696 1.46447L231.838 15.6066C233.79 17.5592 233.79 20.725 231.838 22.6777L219.463 35.052L231.838 47.4264ZM347.904 54.4975C349.856 52.5449 349.856 49.379 347.904 47.4264L335.529 35.052L347.904 22.6777C349.856 20.725 349.856 17.5592 347.904 15.6066L333.762 1.46447C331.809 -0.488156 328.643 -0.488154 326.69 1.46447L314.316 13.8388L301.942 1.46447C299.989 -0.488155 296.823 -0.488154 294.871 1.46447L280.729 15.6066C278.776 17.5592 278.776 20.725 280.729 22.6777L293.103 35.052L280.729 47.4264C278.776 49.379 278.776 52.5448 280.729 54.4975L294.871 68.6396C296.823 70.5922 299.989 70.5922 301.942 68.6396L314.316 56.2652L326.69 68.6396C328.643 70.5922 331.809 70.5922 333.762 68.6396L347.904 54.4975ZM463.97 47.4264C465.922 49.379 465.922 52.5449 463.97 54.4975L449.828 68.6396C447.875 70.5922 444.709 70.5922 442.756 68.6396L430.382 56.2652L418.008 68.6396C416.055 70.5922 412.889 70.5922 410.937 68.6396L396.795 54.4975C394.842 52.5448 394.842 49.379 396.795 47.4264L409.169 35.052L396.795 22.6777C394.842 20.725 394.842 17.5592 396.795 15.6066L410.937 1.46447C412.889 -0.488154 416.055 -0.488155 418.008 1.46447L430.382 13.8388L442.756 1.46447C444.709 -0.488154 447.875 -0.488156 449.828 1.46447L463.97 15.6066C465.922 17.5592 465.922 20.725 463.97 22.6777L451.595 35.052L463.97 47.4264ZM580.036 54.4975C581.988 52.5449 581.988 49.379 580.036 47.4264L567.661 35.052L580.036 22.6777C581.988 20.725 581.988 17.5592 580.036 15.6066L565.894 1.46447C563.941 -0.488156 560.775 -0.488154 558.823 1.46447L546.448 13.8388L534.074 1.46447C532.121 -0.488155 528.955 -0.488154 527.003 1.46447L512.861 15.6066C510.908 17.5592 510.908 20.725 512.861 22.6777L525.235 35.052L512.861 47.4264C510.908 49.379 510.908 52.5448 512.861 54.4975L527.003 68.6396C528.955 70.5922 532.121 70.5922 534.074 68.6396L546.448 56.2652L558.823 68.6396C560.775 70.5922 563.941 70.5922 565.894 68.6396L580.036 54.4975ZM696.102 47.4264C698.054 49.379 698.054 52.5449 696.102 54.4975L681.96 68.6396C680.007 70.5922 676.841 70.5922 674.889 68.6396L662.514 56.2652L650.14 68.6396C648.187 70.5922 645.021 70.5922 643.069 68.6396L628.927 54.4975C626.974 52.5448 626.974 49.379 628.927 47.4264L641.301 35.052L628.927 22.6777C626.974 20.725 626.974 17.5592 628.927 15.6066L643.069 1.46447C645.021 -0.488154 648.187 -0.488155 650.14 1.46447L662.514 13.8388L674.889 1.46447C676.841 -0.488154 680.007 -0.488156 681.96 1.46447L696.102 15.6066C698.054 17.5592 698.054 20.725 696.102 22.6777L683.727 35.052L696.102 47.4264ZM-116.36 160.563C-114.408 158.611 -114.408 155.445 -116.36 153.492L-128.735 141.118L-116.36 128.744C-114.408 126.791 -114.408 123.625 -116.36 121.673L-130.503 107.53C-132.455 105.578 -135.621 105.578 -137.574 107.53L-149.948 119.905L-162.322 107.53C-164.275 105.578 -167.441 105.578 -169.393 107.53L-183.536 121.673C-185.488 123.625 -185.488 126.791 -183.536 128.744L-171.161 141.118L-183.536 153.492C-185.488 155.445 -185.488 158.611 -183.536 160.563L-169.393 174.706C-167.441 176.658 -164.275 176.658 -162.322 174.706L-149.948 162.331L-137.574 174.706C-135.621 176.658 -132.455 176.658 -130.503 174.706L-116.36 160.563ZM-0.294373 153.492C1.65823 155.445 1.65825 158.611 -0.294373 160.563L-14.4365 174.706C-16.3891 176.658 -19.555 176.658 -21.5076 174.706L-33.882 162.331L-46.2563 174.706C-48.2089 176.658 -51.3748 176.658 -53.3274 174.706L-67.4695 160.563C-69.4221 158.611 -69.4221 155.445 -67.4695 153.492L-55.0952 141.118L-67.4695 128.744C-69.4221 126.791 -69.4221 123.625 -67.4695 121.673L-53.3274 107.53C-51.3748 105.578 -48.2089 105.578 -46.2563 107.53L-33.8819 119.905L-21.5076 107.53C-19.555 105.578 -16.3891 105.578 -14.4365 107.53L-0.294373 121.673C1.65825 123.625 1.65825 126.791 -0.294373 128.744L-12.6687 141.118L-0.294373 153.492ZM115.772 160.563C117.724 158.611 117.724 155.445 115.772 153.492L103.397 141.118L115.772 128.744C117.724 126.791 117.724 123.625 115.772 121.673L101.63 107.53C99.6769 105.578 96.511 105.578 94.5584 107.53L82.1841 119.905L69.8097 107.53C67.8571 105.578 64.6913 105.578 62.7386 107.53L48.5965 121.673C46.6439 123.625 46.6439 126.791 48.5965 128.744L60.9709 141.118L48.5965 153.492C46.6439 155.445 46.6439 158.611 48.5965 160.563L62.7386 174.706C64.6913 176.658 67.8571 176.658 69.8097 174.706L82.1841 162.331L94.5584 174.706C96.511 176.658 99.6769 176.658 101.63 174.706L115.772 160.563ZM231.838 153.492C233.79 155.445 233.79 158.611 231.838 160.563L217.696 174.706C215.743 176.658 212.577 176.658 210.624 174.706L198.25 162.331L185.876 174.706C183.923 176.658 180.757 176.658 178.805 174.706L164.663 160.563C162.71 158.611 162.71 155.445 164.663 153.492L177.037 141.118L164.663 128.744C162.71 126.791 162.71 123.625 164.663 121.673L178.805 107.53C180.757 105.578 183.923 105.578 185.876 107.53L198.25 119.905L210.624 107.53C212.577 105.578 215.743 105.578 217.696 107.53L231.838 121.673C233.79 123.625 233.79 126.791 231.838 128.744L219.463 141.118L231.838 153.492ZM347.904 160.563C349.856 158.611 349.856 155.445 347.904 153.492L335.529 141.118L347.904 128.744C349.856 126.791 349.856 123.625 347.904 121.673L333.762 107.53C331.809 105.578 328.643 105.578 326.69 107.53L314.316 119.905L301.942 107.53C299.989 105.578 296.823 105.578 294.871 107.53L280.729 121.673C278.776 123.625 278.776 126.791 280.729 128.744L293.103 141.118L280.729 153.492C278.776 155.445 278.776 158.611 280.729 160.563L294.871 174.706C296.823 176.658 299.989 176.658 301.942 174.706L314.316 162.331L326.69 174.706C328.643 176.658 331.809 176.658 333.762 174.706L347.904 160.563ZM463.97 153.492C465.922 155.445 465.922 158.611 463.97 160.563L449.828 174.706C447.875 176.658 444.709 176.658 442.756 174.706L430.382 162.331L418.008 174.706C416.055 176.658 412.889 176.658 410.937 174.706L396.795 160.563C394.842 158.611 394.842 155.445 396.795 153.492L409.169 141.118L396.795 128.744C394.842 126.791 394.842 123.625 396.795 121.673L410.937 107.53C412.889 105.578 416.055 105.578 418.008 107.53L430.382 119.905L442.756 107.53C444.709 105.578 447.875 105.578 449.828 107.53L463.97 121.673C465.922 123.625 465.922 126.791 463.97 128.744L451.595 141.118L463.97 153.492ZM580.036 160.563C581.988 158.611 581.988 155.445 580.036 153.492L567.661 141.118L580.036 128.744C581.988 126.791 581.988 123.625 580.036 121.673L565.894 107.53C563.941 105.578 560.775 105.578 558.823 107.53L546.448 119.905L534.074 107.53C532.121 105.578 528.955 105.578 527.003 107.53L512.861 121.673C510.908 123.625 510.908 126.791 512.861 128.744L525.235 141.118L512.861 153.492C510.908 155.445 510.908 158.611 512.861 160.563L527.003 174.706C528.955 176.658 532.121 176.658 534.074 174.706L546.448 162.331L558.823 174.706C560.775 176.658 563.941 176.658 565.894 174.706L580.036 160.563ZM696.102 153.492C698.054 155.445 698.054 158.611 696.102 160.563L681.96 174.706C680.007 176.658 676.841 176.658 674.889 174.706L662.514 162.331L650.14 174.706C648.187 176.658 645.021 176.658 643.069 174.706L628.927 160.563C626.974 158.611 626.974 155.445 628.927 153.492L641.301 141.118L628.927 128.744C626.974 126.791 626.974 123.625 628.927 121.673L643.069 107.53C645.021 105.578 648.187 105.578 650.14 107.53L662.514 119.905L674.889 107.53C676.841 105.578 680.007 105.578 681.96 107.53L696.102 121.673C698.054 123.625 698.054 126.791 696.102 128.744L683.727 141.118L696.102 153.492ZM-116.36 266.629C-114.408 264.677 -114.408 261.511 -116.36 259.558L-128.735 247.184L-116.36 234.81C-114.408 232.857 -114.408 229.691 -116.36 227.739L-130.503 213.596C-132.455 211.644 -135.621 211.644 -137.574 213.596L-149.948 225.971L-162.322 213.596C-164.275 211.644 -167.441 211.644 -169.393 213.596L-183.536 227.739C-185.488 229.691 -185.488 232.857 -183.536 234.81L-171.161 247.184L-183.536 259.558C-185.488 261.511 -185.488 264.677 -183.536 266.629L-169.393 280.772C-167.441 282.724 -164.275 282.724 -162.322 280.772L-149.948 268.397L-137.574 280.772C-135.621 282.724 -132.455 282.724 -130.503 280.772L-116.36 266.629ZM-0.294373 259.558C1.65823 261.511 1.65825 264.677 -0.294373 266.629L-14.4365 280.772C-16.3891 282.724 -19.555 282.724 -21.5076 280.772L-33.882 268.397L-46.2563 280.772C-48.2089 282.724 -51.3748 282.724 -53.3274 280.772L-67.4695 266.629C-69.4221 264.677 -69.4221 261.511 -67.4695 259.558L-55.0952 247.184L-67.4695 234.81C-69.4221 232.857 -69.4221 229.691 -67.4695 227.739L-53.3274 213.596C-51.3748 211.644 -48.2089 211.644 -46.2563 213.596L-33.8819 225.971L-21.5076 213.596C-19.555 211.644 -16.3891 211.644 -14.4365 213.596L-0.294373 227.739C1.65825 229.691 1.65825 232.857 -0.294373 234.81L-12.6687 247.184L-0.294373 259.558ZM115.772 266.629C117.724 264.677 117.724 261.511 115.772 259.558L103.397 247.184L115.772 234.81C117.724 232.857 117.724 229.691 115.772 227.739L101.63 213.596C99.6769 211.644 96.511 211.644 94.5584 213.596L82.1841 225.971L69.8097 213.596C67.8571 211.644 64.6913 211.644 62.7386 213.596L48.5965 227.739C46.6439 229.691 46.6439 232.857 48.5965 234.81L60.9709 247.184L48.5965 259.558C46.6439 261.511 46.6439 264.677 48.5965 266.629L62.7386 280.772C64.6913 282.724 67.8571 282.724 69.8097 280.772L82.1841 268.397L94.5584 280.772C96.511 282.724 99.6769 282.724 101.63 280.772L115.772 266.629ZM231.838 259.558C233.79 261.511 233.79 264.677 231.838 266.629L217.696 280.772C215.743 282.724 212.577 282.724 210.624 280.772L198.25 268.397L185.876 280.772C183.923 282.724 180.757 282.724 178.805 280.772L164.663 266.629C162.71 264.677 162.71 261.511 164.663 259.558L177.037 247.184L164.663 234.81C162.71 232.857 162.71 229.691 164.663 227.739L178.805 213.596C180.757 211.644 183.923 211.644 185.876 213.596L198.25 225.971L210.624 213.596C212.577 211.644 215.743 211.644 217.696 213.596L231.838 227.739C233.79 229.691 233.79 232.857 231.838 234.81L219.463 247.184L231.838 259.558ZM347.904 266.629C349.856 264.677 349.856 261.511 347.904 259.558L335.529 247.184L347.904 234.81C349.856 232.857 349.856 229.691 347.904 227.739L333.762 213.596C331.809 211.644 328.643 211.644 326.69 213.596L314.316 225.971L301.942 213.596C299.989 211.644 296.823 211.644 294.871 213.596L280.729 227.739C278.776 229.691 278.776 232.857 280.729 234.81L293.103 247.184L280.729 259.558C278.776 261.511 278.776 264.677 280.729 266.629L294.871 280.772C296.823 282.724 299.989 282.724 301.942 280.772L314.316 268.397L326.69 280.772C328.643 282.724 331.809 282.724 333.762 280.772L347.904 266.629ZM463.97 259.558C465.922 261.511 465.922 264.677 463.97 266.629L449.828 280.772C447.875 282.724 444.709 282.724 442.756 280.772L430.382 268.397L418.008 280.772C416.055 282.724 412.889 282.724 410.937 280.772L396.795 266.629C394.842 264.677 394.842 261.511 396.795 259.558L409.169 247.184L396.795 234.81C394.842 232.857 394.842 229.691 396.795 227.739L410.937 213.596C412.889 211.644 416.055 211.644 418.008 213.596L430.382 225.971L442.756 213.596C444.709 211.644 447.875 211.644 449.828 213.596L463.97 227.739C465.922 229.691 465.922 232.857 463.97 234.81L451.595 247.184L463.97 259.558ZM580.036 266.629C581.988 264.677 581.988 261.511 580.036 259.558L567.661 247.184L580.036 234.81C581.988 232.857 581.988 229.691 580.036 227.739L565.894 213.596C563.941 211.644 560.775 211.644 558.823 213.596L546.448 225.971L534.074 213.596C532.121 211.644 528.955 211.644 527.003 213.596L512.861 227.739C510.908 229.691 510.908 232.857 512.861 234.81L525.235 247.184L512.861 259.558C510.908 261.511 510.908 264.677 512.861 266.629L527.003 280.772C528.955 282.724 532.121 282.724 534.074 280.772L546.448 268.397L558.823 280.772C560.775 282.724 563.941 282.724 565.894 280.772L580.036 266.629ZM696.102 259.558C698.054 261.511 698.054 264.677 696.102 266.629L681.96 280.772C680.007 282.724 676.841 282.724 674.889 280.772L662.514 268.397L650.14 280.772C648.187 282.724 645.021 282.724 643.069 280.772L628.927 266.629C626.974 264.677 626.974 261.511 628.927 259.558L641.301 247.184L628.927 234.81C626.974 232.857 626.974 229.691 628.927 227.739L643.069 213.596C645.021 211.644 648.187 211.644 650.14 213.596L662.514 225.971L674.889 213.596C676.841 211.644 680.007 211.644 681.96 213.596L696.102 227.739C698.054 229.691 698.054 232.857 696.102 234.81L683.727 247.184L696.102 259.558ZM-116.36 372.696C-114.408 370.743 -114.408 367.577 -116.36 365.624L-128.735 353.25L-116.36 340.876C-114.408 338.923 -114.408 335.757 -116.36 333.805L-130.503 319.663C-132.455 317.71 -135.621 317.71 -137.574 319.663L-149.948 332.037L-162.322 319.663C-164.275 317.71 -167.441 317.71 -169.393 319.663L-183.536 333.805C-185.488 335.757 -185.488 338.923 -183.536 340.876L-171.161 353.25L-183.536 365.624C-185.488 367.577 -185.488 370.743 -183.536 372.696L-169.393 386.838C-167.441 388.79 -164.275 388.79 -162.322 386.838L-149.948 374.463L-137.574 386.838C-135.621 388.79 -132.455 388.79 -130.503 386.838L-116.36 372.696ZM-0.294373 365.624C1.65823 367.577 1.65825 370.743 -0.294373 372.696L-14.4365 386.838C-16.3891 388.79 -19.555 388.79 -21.5076 386.838L-33.882 374.463L-46.2563 386.838C-48.2089 388.79 -51.3748 388.79 -53.3274 386.838L-67.4695 372.696C-69.4221 370.743 -69.4221 367.577 -67.4695 365.624L-55.0952 353.25L-67.4695 340.876C-69.4221 338.923 -69.4221 335.757 -67.4695 333.805L-53.3274 319.663C-51.3748 317.71 -48.2089 317.71 -46.2563 319.663L-33.8819 332.037L-21.5076 319.663C-19.555 317.71 -16.3891 317.71 -14.4365 319.663L-0.294373 333.805C1.65825 335.757 1.65825 338.923 -0.294373 340.876L-12.6687 353.25L-0.294373 365.624ZM115.772 372.696C117.724 370.743 117.724 367.577 115.772 365.624L103.397 353.25L115.772 340.876C117.724 338.923 117.724 335.757 115.772 333.805L101.63 319.663C99.6769 317.71 96.511 317.71 94.5584 319.663L82.1841 332.037L69.8097 319.663C67.8571 317.71 64.6913 317.71 62.7386 319.663L48.5965 333.805C46.6439 335.757 46.6439 338.923 48.5965 340.876L60.9709 353.25L48.5965 365.624C46.6439 367.577 46.6439 370.743 48.5965 372.696L62.7386 386.838C64.6913 388.79 67.8571 388.79 69.8097 386.838L82.1841 374.463L94.5584 386.838C96.511 388.79 99.6769 388.79 101.63 386.838L115.772 372.696ZM231.838 365.624C233.79 367.577 233.79 370.743 231.838 372.696L217.696 386.838C215.743 388.79 212.577 388.79 210.624 386.838L198.25 374.463L185.876 386.838C183.923 388.79 180.757 388.79 178.805 386.838L164.663 372.696C162.71 370.743 162.71 367.577 164.663 365.624L177.037 353.25L164.663 340.876C162.71 338.923 162.71 335.757 164.663 333.805L178.805 319.663C180.757 317.71 183.923 317.71 185.876 319.663L198.25 332.037L210.624 319.663C212.577 317.71 215.743 317.71 217.696 319.663L231.838 333.805C233.79 335.757 233.79 338.923 231.838 340.876L219.463 353.25L231.838 365.624ZM347.904 372.696C349.856 370.743 349.856 367.577 347.904 365.624L335.529 353.25L347.904 340.876C349.856 338.923 349.856 335.757 347.904 333.805L333.762 319.663C331.809 317.71 328.643 317.71 326.69 319.663L314.316 332.037L301.942 319.663C299.989 317.71 296.823 317.71 294.871 319.663L280.729 333.805C278.776 335.757 278.776 338.923 280.729 340.876L293.103 353.25L280.729 365.624C278.776 367.577 278.776 370.743 280.729 372.696L294.871 386.838C296.823 388.79 299.989 388.79 301.942 386.838L314.316 374.463L326.69 386.838C328.643 388.79 331.809 388.79 333.762 386.838L347.904 372.696ZM463.97 365.624C465.922 367.577 465.922 370.743 463.97 372.696L449.828 386.838C447.875 388.79 444.709 388.79 442.756 386.838L430.382 374.463L418.008 386.838C416.055 388.79 412.889 388.79 410.937 386.838L396.795 372.696C394.842 370.743 394.842 367.577 396.795 365.624L409.169 353.25L396.795 340.876C394.842 338.923 394.842 335.757 396.795 333.805L410.937 319.663C412.889 317.71 416.055 317.71 418.008 319.663L430.382 332.037L442.756 319.663C444.709 317.71 447.875 317.71 449.828 319.663L463.97 333.805C465.922 335.757 465.922 338.923 463.97 340.876L451.595 353.25L463.97 365.624ZM580.036 372.696C581.988 370.743 581.988 367.577 580.036 365.624L567.661 353.25L580.036 340.876C581.988 338.923 581.988 335.757 580.036 333.805L565.894 319.663C563.941 317.71 560.775 317.71 558.823 319.663L546.448 332.037L534.074 319.663C532.121 317.71 528.955 317.71 527.003 319.663L512.861 333.805C510.908 335.757 510.908 338.923 512.861 340.876L525.235 353.25L512.861 365.624C510.908 367.577 510.908 370.743 512.861 372.696L527.003 386.838C528.955 388.79 532.121 388.79 534.074 386.838L546.448 374.463L558.823 386.838C560.775 388.79 563.941 388.79 565.894 386.838L580.036 372.696ZM696.102 365.624C698.054 367.577 698.054 370.743 696.102 372.696L681.96 386.838C680.007 388.79 676.841 388.79 674.889 386.838L662.514 374.463L650.14 386.838C648.187 388.79 645.021 388.79 643.069 386.838L628.927 372.696C626.974 370.743 626.974 367.577 628.927 365.624L641.301 353.25L628.927 340.876C626.974 338.923 626.974 335.757 628.927 333.805L643.069 319.663C645.021 317.71 648.187 317.71 650.14 319.663L662.514 332.037L674.889 319.663C676.841 317.71 680.007 317.71 681.96 319.663L696.102 333.805C698.054 335.757 698.054 338.923 696.102 340.876L683.727 353.25L696.102 365.624ZM-116.36 478.762C-114.408 476.809 -114.408 473.643 -116.36 471.69L-128.735 459.316L-116.36 446.942C-114.408 444.989 -114.408 441.823 -116.36 439.871L-130.503 425.729C-132.455 423.776 -135.621 423.776 -137.574 425.729L-149.948 438.103L-162.322 425.729C-164.275 423.776 -167.441 423.776 -169.393 425.729L-183.536 439.871C-185.488 441.823 -185.488 444.989 -183.536 446.942L-171.161 459.316L-183.536 471.69C-185.488 473.643 -185.488 476.809 -183.536 478.762L-169.393 492.904C-167.441 494.856 -164.275 494.856 -162.322 492.904L-149.948 480.529L-137.574 492.904C-135.621 494.856 -132.455 494.856 -130.503 492.904L-116.36 478.762ZM-0.294373 471.69C1.65823 473.643 1.65825 476.809 -0.294373 478.762L-14.4365 492.904C-16.3891 494.856 -19.555 494.856 -21.5076 492.904L-33.882 480.529L-46.2563 492.904C-48.2089 494.856 -51.3748 494.856 -53.3274 492.904L-67.4695 478.762C-69.4221 476.809 -69.4221 473.643 -67.4695 471.69L-55.0952 459.316L-67.4695 446.942C-69.4221 444.989 -69.4221 441.823 -67.4695 439.871L-53.3274 425.729C-51.3748 423.776 -48.2089 423.776 -46.2563 425.729L-33.8819 438.103L-21.5076 425.729C-19.555 423.776 -16.3891 423.776 -14.4365 425.729L-0.294373 439.871C1.65825 441.823 1.65825 444.989 -0.294373 446.942L-12.6687 459.316L-0.294373 471.69ZM115.772 478.762C117.724 476.809 117.724 473.643 115.772 471.69L103.397 459.316L115.772 446.942C117.724 444.989 117.724 441.823 115.772 439.871L101.63 425.729C99.6769 423.776 96.511 423.776 94.5584 425.729L82.1841 438.103L69.8097 425.729C67.8571 423.776 64.6913 423.776 62.7386 425.729L48.5965 439.871C46.6439 441.823 46.6439 444.989 48.5965 446.942L60.9709 459.316L48.5965 471.69C46.6439 473.643 46.6439 476.809 48.5965 478.762L62.7386 492.904C64.6913 494.856 67.8571 494.856 69.8097 492.904L82.1841 480.529L94.5584 492.904C96.511 494.856 99.6769 494.856 101.63 492.904L115.772 478.762ZM231.838 471.69C233.79 473.643 233.79 476.809 231.838 478.762L217.696 492.904C215.743 494.856 212.577 494.856 210.624 492.904L198.25 480.529L185.876 492.904C183.923 494.856 180.757 494.856 178.805 492.904L164.663 478.762C162.71 476.809 162.71 473.643 164.663 471.69L177.037 459.316L164.663 446.942C162.71 444.989 162.71 441.823 164.663 439.871L178.805 425.729C180.757 423.776 183.923 423.776 185.876 425.729L198.25 438.103L210.624 425.729C212.577 423.776 215.743 423.776 217.696 425.729L231.838 439.871C233.79 441.823 233.79 444.989 231.838 446.942L219.463 459.316L231.838 471.69ZM347.904 478.762C349.856 476.809 349.856 473.643 347.904 471.69L335.529 459.316L347.904 446.942C349.856 444.989 349.856 441.823 347.904 439.871L333.762 425.729C331.809 423.776 328.643 423.776 326.69 425.729L314.316 438.103L301.942 425.729C299.989 423.776 296.823 423.776 294.871 425.729L280.729 439.871C278.776 441.823 278.776 444.989 280.729 446.942L293.103 459.316L280.729 471.69C278.776 473.643 278.776 476.809 280.729 478.762L294.871 492.904C296.823 494.856 299.989 494.856 301.942 492.904L314.316 480.529L326.69 492.904C328.643 494.856 331.809 494.856 333.762 492.904L347.904 478.762ZM463.97 471.69C465.922 473.643 465.922 476.809 463.97 478.762L449.828 492.904C447.875 494.856 444.709 494.856 442.756 492.904L430.382 480.529L418.008 492.904C416.055 494.856 412.889 494.856 410.937 492.904L396.795 478.762C394.842 476.809 394.842 473.643 396.795 471.69L409.169 459.316L396.795 446.942C394.842 444.989 394.842 441.823 396.795 439.871L410.937 425.729C412.889 423.776 416.055 423.776 418.008 425.729L430.382 438.103L442.756 425.729C444.709 423.776 447.875 423.776 449.828 425.729L463.97 439.871C465.922 441.823 465.922 444.989 463.97 446.942L451.595 459.316L463.97 471.69ZM580.036 478.762C581.988 476.809 581.988 473.643 580.036 471.69L567.661 459.316L580.036 446.942C581.988 444.989 581.988 441.823 580.036 439.871L565.894 425.729C563.941 423.776 560.775 423.776 558.823 425.729L546.448 438.103L534.074 425.729C532.121 423.776 528.955 423.776 527.003 425.729L512.861 439.871C510.908 441.823 510.908 444.989 512.861 446.942L525.235 459.316L512.861 471.69C510.908 473.643 510.908 476.809 512.861 478.762L527.003 492.904C528.955 494.856 532.121 494.856 534.074 492.904L546.448 480.529L558.823 492.904C560.775 494.856 563.941 494.856 565.894 492.904L580.036 478.762ZM696.102 471.69C698.054 473.643 698.054 476.809 696.102 478.762L681.96 492.904C680.007 494.856 676.841 494.856 674.889 492.904L662.514 480.529L650.14 492.904C648.187 494.856 645.021 494.856 643.069 492.904L628.927 478.762C626.974 476.809 626.974 473.643 628.927 471.69L641.301 459.316L628.927 446.942C626.974 444.989 626.974 441.823 628.927 439.871L643.069 425.729C645.021 423.776 648.187 423.776 650.14 425.729L662.514 438.103L674.889 425.729C676.841 423.776 680.007 423.776 681.96 425.729L696.102 439.871C698.054 441.823 698.054 444.989 696.102 446.942L683.727 459.316L696.102 471.69ZM-116.36 584.828C-114.408 582.875 -114.408 579.709 -116.36 577.757L-128.735 565.382L-116.36 553.008C-114.408 551.055 -114.408 547.889 -116.36 545.937L-130.503 531.795C-132.455 529.842 -135.621 529.842 -137.574 531.795L-149.948 544.169L-162.322 531.795C-164.275 529.842 -167.441 529.842 -169.393 531.795L-183.536 545.937C-185.488 547.889 -185.488 551.055 -183.536 553.008L-171.161 565.382L-183.536 577.757C-185.488 579.709 -185.488 582.875 -183.536 584.828L-169.393 598.97C-167.441 600.922 -164.275 600.922 -162.322 598.97L-149.948 586.595L-137.574 598.97C-135.621 600.922 -132.455 600.922 -130.503 598.97L-116.36 584.828ZM-0.294373 577.757C1.65823 579.709 1.65825 582.875 -0.294373 584.828L-14.4365 598.97C-16.3891 600.922 -19.555 600.922 -21.5076 598.97L-33.882 586.595L-46.2563 598.97C-48.2089 600.922 -51.3748 600.922 -53.3274 598.97L-67.4695 584.828C-69.4221 582.875 -69.4221 579.709 -67.4695 577.757L-55.0952 565.382L-67.4695 553.008C-69.4221 551.055 -69.4221 547.889 -67.4695 545.937L-53.3274 531.795C-51.3748 529.842 -48.2089 529.842 -46.2563 531.795L-33.8819 544.169L-21.5076 531.795C-19.555 529.842 -16.3891 529.842 -14.4365 531.795L-0.294373 545.937C1.65825 547.889 1.65825 551.055 -0.294373 553.008L-12.6687 565.382L-0.294373 577.757ZM115.772 584.828C117.724 582.875 117.724 579.709 115.772 577.757L103.397 565.382L115.772 553.008C117.724 551.055 117.724 547.889 115.772 545.937L101.63 531.795C99.6769 529.842 96.511 529.842 94.5584 531.795L82.1841 544.169L69.8097 531.795C67.8571 529.842 64.6913 529.842 62.7386 531.795L48.5965 545.937C46.6439 547.889 46.6439 551.055 48.5965 553.008L60.9709 565.382L48.5965 577.757C46.6439 579.709 46.6439 582.875 48.5965 584.828L62.7386 598.97C64.6913 600.922 67.8571 600.922 69.8097 598.97L82.1841 586.595L94.5584 598.97C96.511 600.922 99.6769 600.922 101.63 598.97L115.772 584.828ZM231.838 577.757C233.79 579.709 233.79 582.875 231.838 584.828L217.696 598.97C215.743 600.922 212.577 600.922 210.624 598.97L198.25 586.595L185.876 598.97C183.923 600.922 180.757 600.922 178.805 598.97L164.663 584.828C162.71 582.875 162.71 579.709 164.663 577.757L177.037 565.382L164.663 553.008C162.71 551.055 162.71 547.889 164.663 545.937L178.805 531.795C180.757 529.842 183.923 529.842 185.876 531.795L198.25 544.169L210.624 531.795C212.577 529.842 215.743 529.842 217.696 531.795L231.838 545.937C233.79 547.889 233.79 551.055 231.838 553.008L219.463 565.382L231.838 577.757ZM347.904 584.828C349.856 582.875 349.856 579.709 347.904 577.757L335.529 565.382L347.904 553.008C349.856 551.055 349.856 547.889 347.904 545.937L333.762 531.795C331.809 529.842 328.643 529.842 326.69 531.795L314.316 544.169L301.942 531.795C299.989 529.842 296.823 529.842 294.871 531.795L280.729 545.937C278.776 547.889 278.776 551.055 280.729 553.008L293.103 565.382L280.729 577.757C278.776 579.709 278.776 582.875 280.729 584.828L294.871 598.97C296.823 600.922 299.989 600.922 301.942 598.97L314.316 586.595L326.69 598.97C328.643 600.922 331.809 600.922 333.762 598.97L347.904 584.828ZM463.97 577.757C465.922 579.709 465.922 582.875 463.97 584.828L449.828 598.97C447.875 600.922 444.709 600.922 442.756 598.97L430.382 586.595L418.008 598.97C416.055 600.922 412.889 600.922 410.937 598.97L396.795 584.828C394.842 582.875 394.842 579.709 396.795 577.757L409.169 565.382L396.795 553.008C394.842 551.055 394.842 547.889 396.795 545.937L410.937 531.795C412.889 529.842 416.055 529.842 418.008 531.795L430.382 544.169L442.756 531.795C444.709 529.842 447.875 529.842 449.828 531.795L463.97 545.937C465.922 547.889 465.922 551.055 463.97 553.008L451.595 565.382L463.97 577.757ZM580.036 584.828C581.988 582.875 581.988 579.709 580.036 577.757L567.661 565.382L580.036 553.008C581.988 551.055 581.988 547.889 580.036 545.937L565.894 531.795C563.941 529.842 560.775 529.842 558.823 531.795L546.448 544.169L534.074 531.795C532.121 529.842 528.955 529.842 527.003 531.795L512.861 545.937C510.908 547.889 510.908 551.055 512.861 553.008L525.235 565.382L512.861 577.757C510.908 579.709 510.908 582.875 512.861 584.828L527.003 598.97C528.955 600.922 532.121 600.922 534.074 598.97L546.448 586.595L558.823 598.97C560.775 600.922 563.941 600.922 565.894 598.97L580.036 584.828ZM696.102 577.757C698.054 579.709 698.054 582.875 696.102 584.828L681.96 598.97C680.007 600.922 676.841 600.922 674.889 598.97L662.514 586.595L650.14 598.97C648.187 600.922 645.021 600.922 643.069 598.97L628.927 584.828C626.974 582.875 626.974 579.709 628.927 577.757L641.301 565.382L628.927 553.008C626.974 551.055 626.974 547.889 628.927 545.937L643.069 531.795C645.021 529.842 648.187 529.842 650.14 531.795L662.514 544.169L674.889 531.795C676.841 529.842 680.007 529.842 681.96 531.795L696.102 545.937C698.054 547.889 698.054 551.055 696.102 553.008L683.727 565.382L696.102 577.757ZM-116.36 690.894C-114.408 688.941 -114.408 685.775 -116.36 683.823L-128.735 671.448L-116.36 659.074C-114.408 657.121 -114.408 653.955 -116.36 652.003L-130.503 637.861C-132.455 635.908 -135.621 635.908 -137.574 637.861L-149.948 650.235L-162.322 637.861C-164.275 635.908 -167.441 635.908 -169.393 637.861L-183.536 652.003C-185.488 653.955 -185.488 657.121 -183.536 659.074L-171.161 671.448L-183.536 683.823C-185.488 685.775 -185.488 688.941 -183.536 690.894L-169.393 705.036C-167.441 706.988 -164.275 706.988 -162.322 705.036L-149.948 692.661L-137.574 705.036C-135.621 706.988 -132.455 706.988 -130.503 705.036L-116.36 690.894ZM-0.294373 683.823C1.65823 685.775 1.65825 688.941 -0.294373 690.894L-14.4365 705.036C-16.3891 706.988 -19.555 706.988 -21.5076 705.036L-33.882 692.661L-46.2563 705.036C-48.2089 706.988 -51.3748 706.988 -53.3274 705.036L-67.4695 690.894C-69.4221 688.941 -69.4221 685.775 -67.4695 683.823L-55.0952 671.448L-67.4695 659.074C-69.4221 657.121 -69.4221 653.955 -67.4695 652.003L-53.3274 637.861C-51.3748 635.908 -48.2089 635.908 -46.2563 637.861L-33.8819 650.235L-21.5076 637.861C-19.555 635.908 -16.3891 635.908 -14.4365 637.861L-0.294373 652.003C1.65825 653.955 1.65825 657.121 -0.294373 659.074L-12.6687 671.448L-0.294373 683.823ZM115.772 690.894C117.724 688.941 117.724 685.775 115.772 683.823L103.397 671.448L115.772 659.074C117.724 657.121 117.724 653.955 115.772 652.003L101.63 637.861C99.6769 635.908 96.511 635.908 94.5584 637.861L82.1841 650.235L69.8097 637.861C67.8571 635.908 64.6913 635.908 62.7386 637.861L48.5965 652.003C46.6439 653.955 46.6439 657.121 48.5965 659.074L60.9709 671.448L48.5965 683.823C46.6439 685.775 46.6439 688.941 48.5965 690.894L62.7386 705.036C64.6913 706.988 67.8571 706.988 69.8097 705.036L82.1841 692.661L94.5584 705.036C96.511 706.988 99.6769 706.988 101.63 705.036L115.772 690.894ZM231.838 683.823C233.79 685.775 233.79 688.941 231.838 690.894L217.696 705.036C215.743 706.988 212.577 706.988 210.624 705.036L198.25 692.661L185.876 705.036C183.923 706.988 180.757 706.988 178.805 705.036L164.663 690.894C162.71 688.941 162.71 685.775 164.663 683.823L177.037 671.448L164.663 659.074C162.71 657.121 162.71 653.955 164.663 652.003L178.805 637.861C180.757 635.908 183.923 635.908 185.876 637.861L198.25 650.235L210.624 637.861C212.577 635.908 215.743 635.908 217.696 637.861L231.838 652.003C233.79 653.955 233.79 657.121 231.838 659.074L219.463 671.448L231.838 683.823ZM347.904 690.894C349.856 688.941 349.856 685.775 347.904 683.823L335.529 671.448L347.904 659.074C349.856 657.121 349.856 653.955 347.904 652.003L333.762 637.861C331.809 635.908 328.643 635.908 326.69 637.861L314.316 650.235L301.942 637.861C299.989 635.908 296.823 635.908 294.871 637.861L280.729 652.003C278.776 653.955 278.776 657.121 280.729 659.074L293.103 671.448L280.729 683.823C278.776 685.775 278.776 688.941 280.729 690.894L294.871 705.036C296.823 706.988 299.989 706.988 301.942 705.036L314.316 692.661L326.69 705.036C328.643 706.988 331.809 706.988 333.762 705.036L347.904 690.894ZM463.97 683.823C465.922 685.775 465.922 688.941 463.97 690.894L449.828 705.036C447.875 706.988 444.709 706.988 442.756 705.036L430.382 692.661L418.008 705.036C416.055 706.988 412.889 706.988 410.937 705.036L396.795 690.894C394.842 688.941 394.842 685.775 396.795 683.823L409.169 671.448L396.795 659.074C394.842 657.121 394.842 653.955 396.795 652.003L410.937 637.861C412.889 635.908 416.055 635.908 418.008 637.861L430.382 650.235L442.756 637.861C444.709 635.908 447.875 635.908 449.828 637.861L463.97 652.003C465.922 653.955 465.922 657.121 463.97 659.074L451.595 671.448L463.97 683.823ZM580.036 690.894C581.988 688.941 581.988 685.775 580.036 683.823L567.661 671.448L580.036 659.074C581.988 657.121 581.988 653.955 580.036 652.003L565.894 637.861C563.941 635.908 560.775 635.908 558.823 637.861L546.448 650.235L534.074 637.861C532.121 635.908 528.955 635.908 527.003 637.861L512.861 652.003C510.908 653.955 510.908 657.121 512.861 659.074L525.235 671.448L512.861 683.823C510.908 685.775 510.908 688.941 512.861 690.894L527.003 705.036C528.955 706.988 532.121 706.988 534.074 705.036L546.448 692.661L558.823 705.036C560.775 706.988 563.941 706.988 565.894 705.036L580.036 690.894ZM696.102 683.823C698.054 685.775 698.054 688.941 696.102 690.894L681.96 705.036C680.007 706.988 676.841 706.988 674.889 705.036L662.514 692.661L650.14 705.036C648.187 706.988 645.021 706.988 643.069 705.036L628.927 690.894C626.974 688.941 626.974 685.775 628.927 683.823L641.301 671.448L628.927 659.074C626.974 657.121 626.974 653.955 628.927 652.003L643.069 637.861C645.021 635.908 648.187 635.908 650.14 637.861L662.514 650.235L674.889 637.861C676.841 635.908 680.007 635.908 681.96 637.861L696.102 652.003C698.054 653.955 698.054 657.121 696.102 659.074L683.727 671.448L696.102 683.823ZM-116.36 796.96C-114.408 795.007 -114.408 791.841 -116.36 789.889L-128.735 777.514L-116.36 765.14C-114.408 763.187 -114.408 760.021 -116.36 758.069L-130.503 743.927C-132.455 741.974 -135.621 741.974 -137.574 743.927L-149.948 756.301L-162.322 743.927C-164.275 741.974 -167.441 741.974 -169.393 743.927L-183.536 758.069C-185.488 760.021 -185.488 763.187 -183.536 765.14L-171.161 777.514L-183.536 789.889C-185.488 791.841 -185.488 795.007 -183.536 796.96L-169.393 811.102C-167.441 813.054 -164.275 813.054 -162.322 811.102L-149.948 798.727L-137.574 811.102C-135.621 813.054 -132.455 813.054 -130.503 811.102L-116.36 796.96ZM-0.294373 789.889C1.65823 791.841 1.65825 795.007 -0.294373 796.96L-14.4365 811.102C-16.3891 813.054 -19.555 813.054 -21.5076 811.102L-33.882 798.727L-46.2563 811.102C-48.2089 813.054 -51.3748 813.054 -53.3274 811.102L-67.4695 796.96C-69.4221 795.007 -69.4221 791.841 -67.4695 789.889L-55.0952 777.514L-67.4695 765.14C-69.4221 763.187 -69.4221 760.021 -67.4695 758.069L-53.3274 743.927C-51.3748 741.974 -48.2089 741.974 -46.2563 743.927L-33.8819 756.301L-21.5076 743.927C-19.555 741.974 -16.3891 741.974 -14.4365 743.927L-0.294373 758.069C1.65825 760.021 1.65825 763.187 -0.294373 765.14L-12.6687 777.514L-0.294373 789.889ZM115.772 796.96C117.724 795.007 117.724 791.841 115.772 789.889L103.397 777.514L115.772 765.14C117.724 763.187 117.724 760.021 115.772 758.069L101.63 743.927C99.6769 741.974 96.511 741.974 94.5584 743.927L82.1841 756.301L69.8097 743.927C67.8571 741.974 64.6913 741.974 62.7386 743.927L48.5965 758.069C46.6439 760.021 46.6439 763.187 48.5965 765.14L60.9709 777.514L48.5965 789.889C46.6439 791.841 46.6439 795.007 48.5965 796.96L62.7386 811.102C64.6913 813.054 67.8571 813.054 69.8097 811.102L82.1841 798.727L94.5584 811.102C96.511 813.054 99.6769 813.054 101.63 811.102L115.772 796.96ZM231.838 789.889C233.79 791.841 233.79 795.007 231.838 796.96L217.696 811.102C215.743 813.054 212.577 813.054 210.624 811.102L198.25 798.727L185.876 811.102C183.923 813.054 180.757 813.054 178.805 811.102L164.663 796.96C162.71 795.007 162.71 791.841 164.663 789.889L177.037 777.514L164.663 765.14C162.71 763.187 162.71 760.021 164.663 758.069L178.805 743.927C180.757 741.974 183.923 741.974 185.876 743.927L198.25 756.301L210.624 743.927C212.577 741.974 215.743 741.974 217.696 743.927L231.838 758.069C233.79 760.021 233.79 763.187 231.838 765.14L219.463 777.514L231.838 789.889ZM347.904 796.96C349.856 795.007 349.856 791.841 347.904 789.889L335.529 777.514L347.904 765.14C349.856 763.187 349.856 760.021 347.904 758.069L333.762 743.927C331.809 741.974 328.643 741.974 326.69 743.927L314.316 756.301L301.942 743.927C299.989 741.974 296.823 741.974 294.871 743.927L280.729 758.069C278.776 760.021 278.776 763.187 280.729 765.14L293.103 777.514L280.729 789.889C278.776 791.841 278.776 795.007 280.729 796.96L294.871 811.102C296.823 813.054 299.989 813.054 301.942 811.102L314.316 798.727L326.69 811.102C328.643 813.054 331.809 813.054 333.762 811.102L347.904 796.96ZM463.97 789.889C465.922 791.841 465.922 795.007 463.97 796.96L449.828 811.102C447.875 813.054 444.709 813.054 442.756 811.102L430.382 798.727L418.008 811.102C416.055 813.054 412.889 813.054 410.937 811.102L396.795 796.96C394.842 795.007 394.842 791.841 396.795 789.889L409.169 777.514L396.795 765.14C394.842 763.187 394.842 760.021 396.795 758.069L410.937 743.927C412.889 741.974 416.055 741.974 418.008 743.927L430.382 756.301L442.756 743.927C444.709 741.974 447.875 741.974 449.828 743.927L463.97 758.069C465.922 760.021 465.922 763.187 463.97 765.14L451.595 777.514L463.97 789.889ZM580.036 796.96C581.988 795.007 581.988 791.841 580.036 789.889L567.661 777.514L580.036 765.14C581.988 763.187 581.988 760.021 580.036 758.069L565.894 743.927C563.941 741.974 560.775 741.974 558.823 743.927L546.448 756.301L534.074 743.927C532.121 741.974 528.955 741.974 527.003 743.927L512.861 758.069C510.908 760.021 510.908 763.187 512.861 765.14L525.235 777.514L512.861 789.889C510.908 791.841 510.908 795.007 512.861 796.96L527.003 811.102C528.955 813.054 532.121 813.054 534.074 811.102L546.448 798.727L558.823 811.102C560.775 813.054 563.941 813.054 565.894 811.102L580.036 796.96ZM696.102 789.889C698.054 791.841 698.054 795.007 696.102 796.96L681.96 811.102C680.007 813.054 676.841 813.054 674.889 811.102L662.514 798.727L650.14 811.102C648.187 813.054 645.021 813.054 643.069 811.102L628.927 796.96C626.974 795.007 626.974 791.841 628.927 789.889L641.301 777.514L628.927 765.14C626.974 763.187 626.974 760.021 628.927 758.069L643.069 743.927C645.021 741.974 648.187 741.974 650.14 743.927L662.514 756.301L674.889 743.927C676.841 741.974 680.007 741.974 681.96 743.927L696.102 758.069C698.054 760.021 698.054 763.187 696.102 765.14L683.727 777.514L696.102 789.889Z" fill="url(#paint0_linear_291_16274)"/>
<defs>
<linearGradient id="paint0_linear_291_16274" x1="256.283" y1="0" x2="256.283" y2="812.566" gradientUnits="userSpaceOnUse">
<stop stop-color="white" stop-opacity="0"/>
<stop offset="1" stop-color="white"/>
</linearGradient>
</defs>
</svg>
